<?xml version="1.0" encoding="UTF-8" standalone="no"?>
<!-- Created with Inkscape (http://www.inkscape.org/) -->

<svg
   width="16.609737mm"
   height="8.7312508mm"
   viewBox="0 0 16.609738 8.7312508"
   version="1.1"
   id="svg1"
   inkscape:version="1.3 (0e150ed6c4, 2023-07-21)"
   sodipodi:docname="logoSPStn.svg"
   xmlns:inkscape="http://www.inkscape.org/namespaces/inkscape"
   xmlns:sodipodi="http://sodipodi.sourceforge.net/DTD/sodipodi-0.dtd"
   xmlns="http://www.w3.org/2000/svg"
   xmlns:svg="http://www.w3.org/2000/svg">
  <sodipodi:namedview
     id="namedview1"
     pagecolor="#1f00a5"
     bordercolor="#000000"
     borderopacity="0.25"
     inkscape:showpageshadow="2"
     inkscape:pageopacity="0.0"
     inkscape:pagecheckerboard="0"
     inkscape:deskcolor="#d1d1d1"
     inkscape:document-units="mm"
     inkscape:zoom="1.6204616"
     inkscape:cx="564.34537"
     inkscape:cy="280.47564"
     inkscape:window-width="3840"
     inkscape:window-height="2054"
     inkscape:window-x="-11"
     inkscape:window-y="-11"
     inkscape:window-maximized="1"
     inkscape:current-layer="layer1" />
  <defs
     id="defs1">
    <clipPath
       clipPathUnits="userSpaceOnUse"
       id="clipPath109">
      <path
         d="M 0,0 H 1920 V 1080 H 0 Z"
         transform="translate(-814.33052,-544.64221)"
         id="path109" />
    </clipPath>
    <clipPath
       clipPathUnits="userSpaceOnUse"
       id="clipPath111">
      <path
         d="M 0,0 H 1920 V 1080 H 0 Z"
         transform="translate(-871.47527,-544.64221)"
         id="path111" />
    </clipPath>
    <clipPath
       clipPathUnits="userSpaceOnUse"
       id="clipPath113">
      <path
         d="M 0,0 H 1920 V 1080 H 0 Z"
         transform="translate(-918.23027,-543.80441)"
         id="path113" />
    </clipPath>
    <clipPath
       clipPathUnits="userSpaceOnUse"
       id="clipPath115">
      <path
         d="M 0,0 H 1920 V 1080 H 0 Z"
         transform="translate(-955.60052,-544.64221)"
         id="path115" />
    </clipPath>
    <clipPath
       clipPathUnits="userSpaceOnUse"
       id="clipPath118">
      <path
         d="M 0,0 H 1920 V 1080 H 0 Z"
         transform="translate(-1094.943,-543.80441)"
         id="path118" />
    </clipPath>
    <clipPath
       clipPathUnits="userSpaceOnUse"
       id="clipPath121">
      <path
         d="M 0,0 H 1920 V 1080 H 0 Z"
         transform="translate(-1162.812,-543.80441)"
         id="path121" />
    </clipPath>
    <clipPath
       clipPathUnits="userSpaceOnUse"
       id="clipPath125">
      <path
         d="M 0,0 H 1920 V 1080 H 0 Z"
         transform="translate(-1294.4438,-543.80441)"
         id="path125" />
    </clipPath>
    <clipPath
       clipPathUnits="userSpaceOnUse"
       id="clipPath129">
      <path
         d="M 0,0 H 1920 V 1080 H 0 Z"
         transform="translate(-911.10827,-470.33641)"
         id="path129" />
    </clipPath>
    <clipPath
       clipPathUnits="userSpaceOnUse"
       id="clipPath131">
      <path
         d="M 0,0 H 1920 V 1080 H 0 Z"
         transform="translate(-958.61552,-470.33641)"
         id="path131" />
    </clipPath>
    <clipPath
       clipPathUnits="userSpaceOnUse"
       id="clipPath133">
      <path
         d="M 0,0 H 1920 V 1080 H 0 Z"
         transform="translate(-986.60027,-471.17461)"
         id="path133" />
    </clipPath>
    <clipPath
       clipPathUnits="userSpaceOnUse"
       id="clipPath135">
      <path
         d="M 0,0 H 1920 V 1080 H 0 Z"
         transform="translate(-1039.3883,-470.33641)"
         id="path135" />
    </clipPath>
    <clipPath
       clipPathUnits="userSpaceOnUse"
       id="clipPath137">
      <path
         d="M 0,0 H 1920 V 1080 H 0 Z"
         transform="translate(-1087.5668,-470.33641)"
         id="path137" />
    </clipPath>
    <clipPath
       clipPathUnits="userSpaceOnUse"
       id="clipPath139">
      <path
         d="M 0,0 H 1920 V 1080 H 0 Z"
         transform="translate(-734.87252,-588.75671)"
         id="path139" />
    </clipPath>
  </defs>
  <g
     inkscape:label="Layer 1"
     inkscape:groupmode="layer"
     id="layer1"
     transform="translate(44.714649,-74.24989)">
    <path
       id="path138"
       d="m 0,0 c -4.707,0 -9.253,-0.681 -13.559,-1.927 l 0.002,0.016 c -0.053,-0.021 -0.103,-0.041 -0.156,-0.06 -7.349,-2.153 -13.976,-5.987 -19.438,-11.066 -0.499,-0.443 -0.749,-0.698 -0.749,-0.698 l -0.392,-0.39 c -0.087,-0.087 -0.174,-0.172 -0.26,-0.259 l -47.249,-47.017 -0.081,-0.123 c -3.429,11.608 -14.164,20.081 -26.883,20.081 -15.484,0 -28.035,-12.551 -28.035,-28.035 0,-15.484 12.551,-28.036 28.035,-28.036 7.647,0 14.575,3.066 19.633,8.03 l 0.003,-0.004 0.174,0.172 c 0.008,0.008 0.016,0.016 0.024,0.024 l 40.142,39.874 0.1,0.113 c 0.324,-26.621 21.992,-48.104 48.689,-48.104 26.899,0 48.704,21.806 48.704,48.705 C 48.704,-21.806 26.899,0 0,0 m -108.765,-82.83 c -7.374,0 -13.352,5.978 -13.352,13.352 0,7.374 5.978,13.352 13.352,13.352 7.374,0 13.352,-5.978 13.352,-13.352 0,-7.374 -5.978,-13.352 -13.352,-13.352 M 0,-82.776 c -18.817,0 -34.072,15.254 -34.072,34.072 0,18.817 15.255,34.072 34.072,34.072 18.818,0 34.072,-15.255 34.072,-34.072 0,-18.818 -15.254,-34.072 -34.072,-34.072"
       style="fill:#ffffff;fill-opacity:1;fill-rule:nonzero;stroke:none"
       transform="matrix(0.08953843,0,0,-0.08953843,-32.465792,74.24989)"
       clip-path="url(#clipPath139)" />
  </g>
</svg>
