<?xml version="1.0" encoding="UTF-8" standalone="no"?>
<svg
   aria-hidden="true"
   role="img"
   class="iconify iconify--logos"
   width="31.88"
   height="32"
   preserveAspectRatio="xMidYMid meet"
   viewBox="0 0 256 257"
   version="1.1"
   id="svg6"
   sodipodi:docname="vite.svg"
   inkscape:version="1.3 (0e150ed6c4, 2023-07-21)"
   xmlns:inkscape="http://www.inkscape.org/namespaces/inkscape"
   xmlns:sodipodi="http://sodipodi.sourceforge.net/DTD/sodipodi-0.dtd"
   xmlns="http://www.w3.org/2000/svg"
   xmlns:svg="http://www.w3.org/2000/svg">
  <sodipodi:namedview
     id="namedview6"
     pagecolor="#ffffff"
     bordercolor="#000000"
     borderopacity="0.25"
     inkscape:showpageshadow="2"
     inkscape:pageopacity="0.0"
     inkscape:pagecheckerboard="0"
     inkscape:deskcolor="#d1d1d1"
     inkscape:zoom="14.351563"
     inkscape:cx="23.864997"
     inkscape:cy="26.373435"
     inkscape:window-width="3840"
     inkscape:window-height="2054"
     inkscape:window-x="-11"
     inkscape:window-y="-11"
     inkscape:window-maximized="1"
     inkscape:current-layer="svg6" />
  <path
     id="path138"
     d="m 0,0 c -4.707,0 -9.253,-0.681 -13.559,-1.927 l 0.002,0.016 c -0.053,-0.021 -0.103,-0.041 -0.156,-0.06 -7.349,-2.153 -13.976,-5.987 -19.438,-11.066 -0.499,-0.443 -0.749,-0.698 -0.749,-0.698 l -0.392,-0.39 c -0.087,-0.087 -0.174,-0.172 -0.26,-0.259 l -47.249,-47.017 -0.081,-0.123 c -3.429,11.608 -14.164,20.081 -26.883,20.081 -15.484,0 -28.035,-12.551 -28.035,-28.035 0,-15.484 12.551,-28.036 28.035,-28.036 7.647,0 14.575,3.066 19.633,8.03 l 0.003,-0.004 0.174,0.172 c 0.008,0.008 0.016,0.016 0.024,0.024 l 40.142,39.874 0.1,0.113 c 0.324,-26.621 21.992,-48.104 48.689,-48.104 26.899,0 48.704,21.806 48.704,48.705 C 48.704,-21.806 26.899,0 0,0 m -108.765,-82.83 c -7.374,0 -13.352,5.978 -13.352,13.352 0,7.374 5.978,13.352 13.352,13.352 7.374,0 13.352,-5.978 13.352,-13.352 0,-7.374 -5.978,-13.352 -13.352,-13.352 M 0,-82.776 c -18.817,0 -34.072,15.254 -34.072,34.072 0,18.817 15.255,34.072 34.072,34.072 18.818,0 34.072,-15.255 34.072,-34.072 0,-18.818 -15.254,-34.072 -34.072,-34.072"
     style="fill:#4158b0;fill-opacity:1;fill-rule:nonzero;stroke:none"
     transform="matrix(1.3854149,0,0,-1.3854149,189.50664,56.21875)"
     clip-path="url(#clipPath139)" />
</svg>
