<?xml version="1.0" encoding="UTF-8" standalone="no"?>
<!-- Created with Inkscape (http://www.inkscape.org/) -->

<svg
   width="46.302082mm"
   height="8.9121895mm"
   viewBox="0 0 46.302084 8.9121895"
   version="1.1"
   id="svg1"
   inkscape:version="1.3 (0e150ed6c4, 2023-07-21)"
   sodipodi:docname="logoSPS.svg"
   xmlns:inkscape="http://www.inkscape.org/namespaces/inkscape"
   xmlns:sodipodi="http://sodipodi.sourceforge.net/DTD/sodipodi-0.dtd"
   xmlns="http://www.w3.org/2000/svg"
   xmlns:svg="http://www.w3.org/2000/svg">
  <sodipodi:namedview
     id="namedview1"
     pagecolor="#1f00a5"
     bordercolor="#000000"
     borderopacity="0.25"
     inkscape:showpageshadow="2"
     inkscape:pageopacity="0.0"
     inkscape:pagecheckerboard="0"
     inkscape:deskcolor="#d1d1d1"
     inkscape:document-units="mm"
     inkscape:zoom="1.6204616"
     inkscape:cx="564.34537"
     inkscape:cy="276.15588"
     inkscape:window-width="3840"
     inkscape:window-height="2054"
     inkscape:window-x="-11"
     inkscape:window-y="-11"
     inkscape:window-maximized="1"
     inkscape:current-layer="layer1" />
  <defs
     id="defs1">
    <clipPath
       clipPathUnits="userSpaceOnUse"
       id="clipPath109">
      <path
         d="M 0,0 H 1920 V 1080 H 0 Z"
         transform="translate(-814.33052,-544.64221)"
         id="path109" />
    </clipPath>
    <clipPath
       clipPathUnits="userSpaceOnUse"
       id="clipPath111">
      <path
         d="M 0,0 H 1920 V 1080 H 0 Z"
         transform="translate(-871.47527,-544.64221)"
         id="path111" />
    </clipPath>
    <clipPath
       clipPathUnits="userSpaceOnUse"
       id="clipPath113">
      <path
         d="M 0,0 H 1920 V 1080 H 0 Z"
         transform="translate(-918.23027,-543.80441)"
         id="path113" />
    </clipPath>
    <clipPath
       clipPathUnits="userSpaceOnUse"
       id="clipPath115">
      <path
         d="M 0,0 H 1920 V 1080 H 0 Z"
         transform="translate(-955.60052,-544.64221)"
         id="path115" />
    </clipPath>
    <clipPath
       clipPathUnits="userSpaceOnUse"
       id="clipPath118">
      <path
         d="M 0,0 H 1920 V 1080 H 0 Z"
         transform="translate(-1094.943,-543.80441)"
         id="path118" />
    </clipPath>
    <clipPath
       clipPathUnits="userSpaceOnUse"
       id="clipPath121">
      <path
         d="M 0,0 H 1920 V 1080 H 0 Z"
         transform="translate(-1162.812,-543.80441)"
         id="path121" />
    </clipPath>
    <clipPath
       clipPathUnits="userSpaceOnUse"
       id="clipPath125">
      <path
         d="M 0,0 H 1920 V 1080 H 0 Z"
         transform="translate(-1294.4438,-543.80441)"
         id="path125" />
    </clipPath>
    <clipPath
       clipPathUnits="userSpaceOnUse"
       id="clipPath129">
      <path
         d="M 0,0 H 1920 V 1080 H 0 Z"
         transform="translate(-911.10827,-470.33641)"
         id="path129" />
    </clipPath>
    <clipPath
       clipPathUnits="userSpaceOnUse"
       id="clipPath131">
      <path
         d="M 0,0 H 1920 V 1080 H 0 Z"
         transform="translate(-958.61552,-470.33641)"
         id="path131" />
    </clipPath>
    <clipPath
       clipPathUnits="userSpaceOnUse"
       id="clipPath133">
      <path
         d="M 0,0 H 1920 V 1080 H 0 Z"
         transform="translate(-986.60027,-471.17461)"
         id="path133" />
    </clipPath>
    <clipPath
       clipPathUnits="userSpaceOnUse"
       id="clipPath135">
      <path
         d="M 0,0 H 1920 V 1080 H 0 Z"
         transform="translate(-1039.3883,-470.33641)"
         id="path135" />
    </clipPath>
    <clipPath
       clipPathUnits="userSpaceOnUse"
       id="clipPath137">
      <path
         d="M 0,0 H 1920 V 1080 H 0 Z"
         transform="translate(-1087.5668,-470.33641)"
         id="path137" />
    </clipPath>
    <clipPath
       clipPathUnits="userSpaceOnUse"
       id="clipPath139">
      <path
         d="M 0,0 H 1920 V 1080 H 0 Z"
         transform="translate(-734.87252,-588.75671)"
         id="path139" />
    </clipPath>
  </defs>
  <g
     inkscape:label="Layer 1"
     inkscape:groupmode="layer"
     id="layer1"
     transform="translate(44.714649,-75.40625)">
    <path
       id="path108"
       clip-path="url(#clipPath109)"
       style="fill:#ffffff;fill-opacity:1;fill-rule:nonzero;stroke:none"
       d="m 110.68635,65.021196 c -2.57,0 -4.72017,-0.87965 -6.45117,-2.639648 -1.731,-1.758998 -2.59717,-3.868198 -2.59717,-6.325196 0,-2.513997 0.86617,-4.651158 2.59717,-6.410156 1.731,-1.759999 3.88117,-2.639649 6.45117,-2.639649 2.569,0 4.70516,0.87965 6.41016,2.639649 1.70399,1.758998 2.55615,3.896159 2.55615,6.410156 0,2.456998 -0.85216,4.566198 -2.55615,6.325196 -1.705,1.759998 -3.84116,2.639648 -6.41016,2.639648 z M -1.7994095e-4,60.329302 V -2.9130415e-4 H 12.903629 V 22.707718 H 28.65656 c 4.411995,0 8.224039,0.796697 11.436036,2.387695 3.211996,1.592998 5.712002,3.813113 7.5,6.66211 1.787998,2.848997 2.682129,6.143235 2.682129,9.886231 0,3.740996 -0.881115,7.009737 -2.641113,9.802735 -1.758999,2.792997 -4.244059,4.971134 -7.456056,6.536133 -3.212996,1.562998 -7.053001,2.34668 -11.520996,2.34668 z m 305.58106994095,0 V -2.9130415e-4 h 12.56836 V 60.329302 Z m 117.38965,0 V -2.9130415e-4 H 435.5389 V 18.538772 L 450.36898,-2.9130415e-4 h 14.91504 L 446.11654,22.518753 464.44613,42.732133 H 449.95004 L 435.5389,25.675491 v 34.653811 z m -312.28419,-1.50879 c 0.781,0 1.42373,-0.265875 1.92773,-0.796875 0.502,-0.530999 0.7544,-1.186286 0.7544,-1.967285 0,-0.782999 -0.2524,-1.453696 -0.7544,-2.012695 -0.504,-0.558 -1.14673,-0.836426 -1.92773,-0.836426 -0.838,0 -1.50823,0.278426 -2.01123,0.836426 -0.503,0.558999 -0.75293,1.229696 -0.75293,2.012695 0,0.780999 0.24993,1.436286 0.75293,1.967285 0.503,0.531 1.17323,0.796875 2.01123,0.796875 z M 12.903629,50.441606 h 15.082032 c 2.959997,0 5.2646,-0.811178 6.912598,-2.430176 1.646999,-1.620999 2.471192,-3.770175 2.471192,-6.451172 0,-2.680998 -0.824193,-4.847655 -2.471192,-6.493653 -1.647998,-1.648998 -3.952601,-2.471192 -6.912598,-2.471192 H 12.903629 Z M 82.11457,43.571488 c -3.407996,0 -6.256366,-0.950123 -8.547363,-2.849121 -1.739139,-1.442953 -3.106196,-3.38786 -4.104493,-5.828614 v 7.839845 H 57.144842 V -2.9130415e-4 h 12.56836 V 22.288772 c 0,3.461997 0.949124,5.906545 2.849122,7.331544 1.896998,1.424998 4.859352,2.137207 8.881348,2.137207 0.724999,0 1.340774,-0.01448 1.842773,-0.04248 0.503,-0.029 0.894805,-0.09747 1.174805,-0.209472 V 43.23604 c -0.503999,0.222 -1.286681,0.335449 -2.34668,0.335448 z m 86.30274,0 c -3.743,0 -6.94027,-0.937107 -9.59326,-2.808105 -2.16843,-1.529503 -3.90964,-3.484341 -5.23828,-5.852051 v 7.822266 H 141.26936 V -2.9130415e-4 h 12.56836 V 23.629104 c 0,2.010998 0.41884,3.755819 1.25683,5.236817 0.838,1.478999 1.99755,2.62506 3.47754,3.435059 1.48,0.809999 3.11337,1.21582 4.90137,1.21582 2.066,0 3.67287,-0.517806 4.81787,-1.549805 1.144,-1.034999 1.71826,-2.639873 1.71826,-4.817871 V -2.9130415e-4 h 12.56836 V 23.629104 c 0,2.010998 0.41884,3.755819 1.25684,5.236817 0.838,1.478999 1.99554,2.62506 3.47754,3.435059 1.478,0.809999 3.11337,1.21582 4.90137,1.21582 2.06599,0 3.67187,-0.517806 4.81787,-1.549805 1.144,-1.034999 1.7168,-2.639873 1.7168,-4.817871 V -2.9130415e-4 h 12.56982 V 29.494339 c 0,4.189996 -1.24349,7.583667 -3.72949,10.180665 -2.486,2.596997 -6.04711,3.896484 -10.68311,3.896484 -3.90999,0 -7.24721,-0.937107 -10.01221,-2.808105 -2.13155,-1.442613 -3.85147,-3.260984 -5.16943,-5.449219 -0.62008,1.670543 -1.57208,3.168208 -2.87402,4.485351 -2.487,2.513998 -5.96363,3.771973 -10.43262,3.771973 z m 111.27393,0 c -5.69799,0 -10.13876,-1.159541 -13.32275,-3.477539 -3.184,-2.318998 -4.7754,-5.545227 -4.7754,-9.678223 0,-3.407997 1.20006,-6.186428 3.60206,-8.336426 2.40199,-2.150998 6.14503,-3.757873 11.22802,-4.817872 l 6.87012,-1.425293 c 1.844,-0.390999 3.11399,-0.880309 3.81299,-1.466308 0.698,-0.586 1.04736,-1.410193 1.04736,-2.471192 0,-1.396999 -0.60176,-2.4730516 -1.80175,-3.2270509 -1.202,-0.7539992 -3.11427,-1.1308594 -5.73926,-1.1308594 -2.905,0 -5.18211,0.4887745 -6.8291,1.4677735 -1.648,0.975999 -2.61261,2.4154318 -2.89161,4.3154298 H 259.6639 c 0.336,-4.4139955 2.34769,-7.8771396 6.03369,-10.3901371 3.68699,-2.51399751 8.65804,-3.77197287 14.91504,-3.77197287 5.97699,0 10.59868,1.1600064 13.86767,3.47900407 3.267,2.3169977 4.90137,5.5702586 4.90137,9.7602549 0,3.294996 -1.10455,6.158846 -3.31055,8.589844 -2.20699,2.428997 -5.46025,4.090864 -9.76025,4.984863 l -7.70947,1.590821 c -2.067,0.445999 -3.54841,0.96427 -4.44141,1.551269 -0.894,0.586 -1.33887,1.382697 -1.33887,2.387696 0,1.172998 0.54284,2.080145 1.63184,2.723144 1.09,0.642 2.75133,0.962403 4.98633,0.962403 2.45799,0 4.35724,-0.37586 5.69824,-1.13086 1.341,-0.753999 2.12268,-1.857083 2.34668,-3.309082 h 11.22803 c -0.335,4.020996 -2.18026,7.164272 -5.53125,9.42627 -3.352,2.261998 -7.84776,3.394043 -13.48975,3.394043 z m 68.79053,0 c -4.69299,0 -8.81289,-0.922627 -12.35889,-2.765625 -3.54799,-1.843998 -6.31341,-4.413011 -8.29541,-7.708008 -1.98399,-3.295997 -2.97509,-7.151482 -2.97509,-11.563477 0,-4.412996 0.9911,-8.310457 2.97509,-11.689454 1.982,-3.3799966 4.74742,-6.0040022 8.29541,-7.8750004 3.546,-1.87199809 7.6659,-2.80810557 12.35889,-2.80810557 4.692,0 8.81089,0.93610748 12.35889,2.80810557 3.546,1.8709982 6.31241,4.4950038 8.29541,7.8750004 1.983,3.378997 2.9751,7.276458 2.9751,11.689454 0,4.411995 -0.97909,8.26748 -2.93409,11.563477 -1.95599,3.294997 -4.70593,5.86401 -8.25293,7.708008 -3.54899,1.842998 -7.69438,2.765625 -12.44238,2.765625 z m 138.92139,0 c -5.92199,0 -10.58619,-1.257975 -13.99218,-3.771973 -3.408,-2.512997 -5.3932,-5.696785 -5.9502,-9.550781 h 11.98242 c 0.39,1.395998 1.21566,2.457106 2.47266,3.183105 1.256,0.725 2.94536,1.089844 5.06836,1.089844 2.233,0 3.92336,-0.48931 5.06836,-1.466309 1.144,-0.977999 1.71826,-2.332478 1.71826,-4.063476 v -2.198731 l -10.55713,-1.488281 c -5.36199,-0.727 -9.53788,-2.304378 -12.52588,-4.734375 -2.98899,-2.429998 -4.48388,-5.628731 -4.48388,-9.594728 0,-3.573996 1.25751,-6.4369162 3.7705,-8.586914 2.514,-2.15099788 5.89219,-3.22705097 10.13819,-3.22705097 3.63099,0 6.70526,0.81117752 9.21826,2.43017587 2.0215,1.3031566 3.62112,3.1208327 4.81201,5.4360355 0.0314,-1.1151799 0.0812,-2.1689294 0.17285,-3.0893557 0.14,-1.3969986 0.37692,-2.7109662 0.71192,-3.93896500415 H 507.5975 C 507.1485,1.6197071 506.82863,3.1416283 506.63363,4.5656269 c -0.197,1.4249986 -0.29296,2.8359352 -0.29296,4.2319338 V 27.651566 c 0,5.137994 -1.62236,9.075968 -4.86036,11.813965 -3.24099,2.736997 -7.93315,4.105957 -14.07715,4.105957 z M 89.57209,42.733598 V 13.824905 c 0,-2.736998 0.557783,-5.2090419 1.675782,-7.4150397 1.116998,-2.2069978 2.749369,-3.9672985 4.901367,-5.2792972 2.148998,-1.31199866 4.734491,-1.96875007 7.750491,-1.96875007 3.79799,0 7.0387,0.94912314 9.7207,2.84912127 2.19087,1.5510119 3.94411,3.5028389 5.27783,5.8388674 V -2.9130415e-4 h 12.31788 V 42.733598 H 118.64631 V 19.773635 c 0,-2.066997 -0.43285,-3.895306 -1.29785,-5.487304 -0.867,-1.591999 -2.02554,-2.836029 -3.47754,-3.728028 -1.453,-0.8939991 -3.12935,-1.341797 -5.02734,-1.341797 -2.123,0 -3.77085,0.5872786 -4.94385,1.759277 -1.173,1.173999 -1.75928,2.9333 -1.75928,5.279298 v 26.478517 z m 124.34327,0 16.00195,-40.8178736 -8.62793,-19.0927744 h 12.56836 l 25.89112,59.910648 h -13.40772 l -9.60352,-26.192873 -9.24755,26.192873 z m 158.36133,0 16.84278,-42.73388930415 h 12.14941 L 418.11019,42.733598 H 404.9559 l -9.56397,-29.182619 -9.62402,29.182619 z m -23.79492,-9.049806 c 2.961,0 5.45854,-1.046092 7.49854,-3.14209 2.03899,-2.093997 3.05859,-5.068832 3.05859,-8.923828 0,-2.625998 -0.47383,-4.873143 -1.42383,-6.744141 -0.951,-1.872998 -2.21999,-3.310431 -3.81299,-4.31543 -1.59199,-1.005999 -3.36531,-1.5087892 -5.32031,-1.5087892 -1.956,0 -3.72978,0.5027902 -5.32178,1.5087892 -1.59199,1.004999 -2.86252,2.442432 -3.81152,4.31543 -0.951,1.870998 -1.42529,4.118143 -1.42529,6.744141 0,3.797996 1.01959,6.758815 3.05859,8.882813 2.039,2.121998 4.539,3.183105 7.5,3.183105 z m 145.28907,-14.20459 v -3.978516 c 0,-1.898998 -0.92016,-3.559865 -2.76416,-4.984863 -1.844,-1.4239991 -4.07813,-2.1372076 -6.70312,-2.1372076 -1.676,0 -3.01647,0.3643093 -4.02247,1.0913086 -1.00599,0.723999 -1.50878,1.786107 -1.50878,3.183106 0,1.561998 0.53028,2.791548 1.59228,3.685547 1.061,0.892999 2.70985,1.508238 4.94385,1.844238 z M 47.676092,-11.462694 v -13.574708 h 13.407716 v 13.574708 z m 23.041993,-1.675782 v -60.329592 h 12.317872 v 7.100098 c 0.749281,-2.044183 2.012979,-3.745408 3.812989,-5.088868 2.540997,-1.898998 5.849715,-2.849121 9.928711,-2.849121 3.964993,0 7.401643,0.922627 10.306643,2.765625 2.903,1.843998 5.16562,4.440973 6.78662,7.792969 1.619,3.350997 2.43018,7.28997 2.43018,11.813966 0,4.468995 -0.76921,8.349976 -2.3042,11.646973 -1.537,3.294997 -3.71614,5.850994 -6.53614,7.666992 -2.82199,1.813999 -6.15967,2.723145 -10.013669,2.723145 -4.021996,0 -7.359211,-0.909146 -10.012208,-2.723145 -1.917098,-1.311774 -3.294306,-2.971312 -4.146973,-4.967285 v 24.448243 z M -1.7994095e-4,-13.13994 V -73.468068 H 12.903629 v 0.0015 h 28.98926 v 9.886231 H 12.903629 V -13.13994 Z M 143.86653,-29.896289 c -4.58,0 -8.60293,-0.937107 -12.06592,-2.808106 -3.464,-1.871998 -6.15894,-4.469972 -8.08594,-7.792969 -1.927,-3.323996 -2.89014,-7.192497 -2.89014,-11.604492 0,-4.355996 0.96314,-8.211481 2.89014,-11.563478 1.927,-3.350996 4.65044,-5.962986 8.16943,-7.833984 3.519,-1.871998 7.65238,-2.806641 12.40137,-2.806641 5.306,0 9.64879,1.186038 13.02979,3.561035 3.37899,2.373998 5.76709,5.626724 7.16308,9.761719 h -11.81396 c -0.727,-1.508998 -1.81607,-2.598067 -3.26807,-3.268066 -1.453,-0.670999 -3.1848,-1.004883 -5.1958,-1.004883 -3.632,0 -6.35397,1.061108 -8.16797,3.183106 -1.28567,1.503024 -2.10628,3.577924 -2.48144,6.200684 h 31.68017 c 0.112,0.669999 0.19742,1.383207 0.25342,2.137207 0.055,0.753999 0.0835,1.577192 0.0835,2.471191 0,4.300996 -0.89367,8.044031 -2.68067,11.228028 -1.78899,3.183997 -4.30348,5.669522 -7.54248,7.45752 -3.23999,1.786998 -7.06652,2.682129 -11.47851,2.682129 z m 53.37158,0 c -3.407,0 -6.2559,-0.951123 -8.5459,-2.849121 -1.7406,-1.443538 -3.10751,-3.389397 -4.10595,-5.831543 v 7.842773 h -12.31641 v -42.733888 h 12.56836 v 22.289063 c 0,3.462997 0.94912,5.906545 2.84912,7.331544 1.898,1.423998 4.85935,2.135742 8.88135,2.135742 0.725,0 1.34077,-0.01448 1.84277,-0.04248 0.504,-0.028 0.89481,-0.09701 1.17481,-0.208007 v 11.729004 c -0.503,0.223 -1.28715,0.336914 -2.34815,0.336913 z m 27.40137,0 c -4.581,0 -8.60439,-0.937107 -12.06738,-2.808106 -3.463,-1.871998 -6.15748,-4.469972 -8.08448,-7.792969 -1.92799,-3.323996 -2.89013,-7.192497 -2.89013,-11.604492 0,-4.355996 0.96214,-8.211481 2.89013,-11.563478 1.927,-3.350996 4.65044,-5.962986 8.16944,-7.833984 3.51899,-1.871998 7.65237,-2.806641 12.40137,-2.806641 5.30599,0 9.64878,1.186038 13.02978,3.561035 3.378,2.373998 5.76709,5.626724 7.16309,9.761719 h -11.81397 c -0.727,-1.508998 -1.81607,-2.598067 -3.26806,-3.268066 -1.453,-0.670999 -3.18481,-1.004883 -5.19581,-1.004883 -3.63199,0 -6.35297,1.061108 -8.16796,3.183106 -1.28639,1.503024 -2.10769,3.577924 -2.48292,6.200684 h 31.68311 c 0.111,0.669999 0.19449,1.383207 0.25049,2.137207 0.055,0.753999 0.0835,1.577192 0.0835,2.471191 0,4.300996 -0.89367,8.044031 -2.68067,11.228028 -1.788,3.183997 -4.30202,5.669522 -7.54101,7.45752 -3.24,1.786998 -7.06652,2.682129 -11.47852,2.682129 z m 48.59619,0 c -4.46999,0 -8.40697,-0.951123 -11.81396,-2.849121 -3.407,-1.899998 -6.07545,-4.524469 -8.00244,-7.876465 -1.927,-3.351997 -2.89014,-7.178986 -2.89014,-11.479981 0,-4.301996 0.96314,-8.12652 2.89014,-11.478517 1.92699,-3.350996 4.59544,-5.978467 8.00244,-7.876465 3.40699,-1.898998 7.34397,-2.849121 11.81396,-2.849121 3.741,0 7.10818,0.685712 10.09717,2.053711 2.988,1.367999 5.44703,3.252764 7.37403,5.655762 1.92699,2.401998 3.16802,5.221406 3.72802,8.462403 h -12.14941 c -0.615,-2.067998 -1.71708,-3.632361 -3.30908,-4.69336 -1.593,-1.060999 -3.45174,-1.59082 -5.57373,-1.59082 -2.011,0 -3.75636,0.50279 -5.23536,1.508789 -1.48099,1.004999 -2.61204,2.429951 -3.39404,4.272949 -0.783,1.842998 -1.17334,4.021671 -1.17334,6.534669 0,2.513997 0.39034,4.692135 1.17334,6.536133 0.782,1.842998 1.91305,3.26795 3.39404,4.272949 1.479,1.005999 3.22436,1.508789 5.23536,1.508789 2.12199,0 3.98073,-0.531286 5.57373,-1.592285 1.592,-1.060999 2.69408,-2.625897 3.30908,-4.691895 h 12.14941 c -0.56,3.238997 -1.80103,6.060405 -3.72802,8.462403 -1.927,2.400998 -4.38603,4.285763 -7.37403,5.655762 -2.98899,1.367999 -6.35617,2.053711 -10.09717,2.053711 z m -225.139168,-0.837891 -0.0015,-42.732424 h 12.569825 v 42.732424 z m 95.603028,-8.211914 c 2.849,0 5.09615,-0.824193 6.74415,-2.471192 1.3977,-1.397708 2.1957,-3.456294 2.4082,-6.159668 h -19.11035 c 0.43406,2.164748 1.19414,3.929344 2.29101,5.279297 1.814,2.232998 4.37,3.351563 7.66699,3.351563 z m 80.77149,0 c 2.849,0 5.09661,-0.824193 6.74561,-2.471192 1.39686,-1.397708 2.19594,-3.456294 2.4082,-6.159668 h -19.11182 c 0.43416,2.164773 1.195,3.929333 2.29249,5.279297 1.81499,2.232998 4.36953,3.351563 7.66552,3.351563 z M 93.090645,-39.952442 c 3.016997,0 5.459545,-1.033611 7.331545,-3.099609 1.87,-2.067998 2.8081,-5.056848 2.8081,-8.964844 0,-3.910997 -0.92309,-6.927808 -2.76709,-9.049806 -1.842994,-2.123998 -4.245101,-3.18457 -7.204098,-3.18457 -3.016997,0 -5.46201,1.048092 -7.333008,3.14209 -1.871998,2.094998 -2.806641,5.097328 -2.806641,9.007325 0,3.909996 0.934643,6.912326 2.806641,9.007324 1.870998,2.094998 4.259554,3.14209 7.164551,3.14209 z"
       transform="matrix(0.06396592,0,0,-0.06396592,-30.881506,79.565391)"
       sodipodi:nodetypes="scscsssssccccscssccsccccccccccccccccccscscscssscscscsccsccccccscscccssccccccscsscsccsccscsccssscccsscsccccscsccccscsccccscsccccssscsccsscsccssccccscscccsssccccccsscscsccsccccccsccscscccccccccccccccccccscsscsccscscscscssccccccccccccsccsccscccccccccccccsccsccsccccsccccsccssccccccscscccssccsccsccccsccccsccsscssccscccccsccsccscccccscccccsccccssccccsscscscscs" />
    <path
       id="path138"
       d="m 0,0 c -4.707,0 -9.253,-0.681 -13.559,-1.927 l 0.002,0.016 c -0.053,-0.021 -0.103,-0.041 -0.156,-0.06 -7.349,-2.153 -13.976,-5.987 -19.438,-11.066 -0.499,-0.443 -0.749,-0.698 -0.749,-0.698 l -0.392,-0.39 c -0.087,-0.087 -0.174,-0.172 -0.26,-0.259 l -47.249,-47.017 -0.081,-0.123 c -3.429,11.608 -14.164,20.081 -26.883,20.081 -15.484,0 -28.035,-12.551 -28.035,-28.035 0,-15.484 12.551,-28.036 28.035,-28.036 7.647,0 14.575,3.066 19.633,8.03 l 0.003,-0.004 0.174,0.172 c 0.008,0.008 0.016,0.016 0.024,0.024 l 40.142,39.874 0.1,0.113 c 0.324,-26.621 21.992,-48.104 48.689,-48.104 26.899,0 48.704,21.806 48.704,48.705 C 48.704,-21.806 26.899,0 0,0 m -108.765,-82.83 c -7.374,0 -13.352,5.978 -13.352,13.352 0,7.374 5.978,13.352 13.352,13.352 7.374,0 13.352,-5.978 13.352,-13.352 0,-7.374 -5.978,-13.352 -13.352,-13.352 M 0,-82.776 c -18.817,0 -34.072,15.254 -34.072,34.072 0,18.817 15.255,34.072 34.072,34.072 18.818,0 34.072,-15.255 34.072,-34.072 0,-18.818 -15.254,-34.072 -34.072,-34.072"
       style="fill:#ffffff;fill-opacity:1;fill-rule:nonzero;stroke:none"
       transform="matrix(0.06396592,0,0,-0.06396592,-35.964111,76.743567)"
       clip-path="url(#clipPath139)" />
  </g>
</svg>
